<svg width="14" height="14" viewBox="0 0 14 14" fill="none" xmlns="http://www.w3.org/2000/svg">
<path d="M1.29289 10.8995L0.585786 11.6066L2 13.0208L2.70711 12.3137L1.29289 10.8995ZM13.6066 1.00003C13.6066 0.447742 13.1589 2.66209e-05 12.6066 2.70424e-05L3.6066 2.71688e-05C3.05432 2.68316e-05 2.6066 0.447742 2.6066 1.00003C2.6066 1.55231 3.05432 2.00003 3.6066 2.00003L11.6066 2.00003L11.6066 10C11.6066 10.5523 12.0543 11 12.6066 11C13.1589 11 13.6066 10.5523 13.6066 10L13.6066 1.00003ZM2.70711 12.3137L13.3137 1.70713L11.8995 0.29292L1.29289 10.8995L2.70711 12.3137Z" fill="#00BEC5"/>
</svg>
