<svg width="227" height="234" viewBox="0 0 227 234" fill="none" xmlns="http://www.w3.org/2000/svg">
<mask id="mask0_238_568" style="mask-type:alpha" maskUnits="userSpaceOnUse" x="0" y="0" width="227" height="234">
<path d="M0 9.00001C0 4.02945 4.02944 0 9 0H217.463C222.434 0 226.463 4.02944 226.463 9V233.871H0V9.00001Z" fill="#2D2D2D"/>
</mask>
<g mask="url(#mask0_238_568)">
<rect x="-68.3916" y="-14.8154" width="363.247" height="424.354" fill="#2D2D2D"/>
</g>
<g clip-path="url(#clip0_238_568)">
<path d="M170.981 93.0537C171.691 93.7322 172.18 94.0952 172.464 94.1741C172.685 94.2214 173.048 93.8743 173.537 93.101C173.963 92.4225 174.2 91.9333 174.232 91.6335C173.38 90.2448 172.638 89.3611 172.007 88.9824C171.881 89.0613 171.518 89.44 170.918 90.1501C170.255 90.9392 169.94 91.4441 169.956 91.6493C169.94 91.9175 170.287 92.3909 170.981 93.0537Z" fill="white" fill-opacity="0.5"/>
<path d="M176.992 93.5586C177.418 93.6218 177.923 93.243 178.491 92.3909C178.949 91.7282 179.217 91.2705 179.264 91.0496C179.264 90.6393 178.949 90.087 178.333 89.3769C177.718 88.6668 177.339 88.3039 177.166 88.2565C176.834 88.3512 176.077 89.1876 174.894 90.7656C175.02 91.2074 175.32 91.7439 175.761 92.3909C176.203 93.0537 176.613 93.4324 176.992 93.5586Z" fill="white" fill-opacity="0.5"/>
<path d="M49.2659 90.7971C49.9759 91.4757 50.465 91.8386 50.749 91.9175C50.9699 91.9649 51.3328 91.6177 51.822 90.8445C52.248 90.1659 52.4846 89.6767 52.5162 89.3769C51.6642 87.9883 50.9226 87.1046 50.2914 86.7101C50.1652 86.789 49.8023 87.1677 49.2027 87.8778C48.54 88.6668 48.2245 89.1718 48.2403 89.3769C48.2087 89.6452 48.5558 90.1186 49.2659 90.7971Z" fill="white" fill-opacity="0.5"/>
<path d="M55.2624 91.2863C55.6885 91.3494 56.1934 90.9707 56.7614 90.1186C57.219 89.4558 57.4872 88.9982 57.5345 88.7773C57.5345 88.367 57.219 87.8147 56.6036 87.1046C55.9882 86.3945 55.6096 86.0315 55.436 85.9842C55.1204 86.0947 54.3631 86.931 53.1797 88.509C53.3059 88.9509 53.6057 89.4874 54.0475 90.1344C54.4735 90.7813 54.8838 91.1758 55.2624 91.2863Z" fill="white" fill-opacity="0.5"/>
<path d="M114.763 91.2863C115.189 91.3494 115.694 90.9707 116.262 90.1186C116.719 89.4558 116.987 88.9982 117.035 88.7773C117.035 88.367 116.719 87.8147 116.104 87.1046C115.488 86.3945 115.11 86.0315 114.936 85.9842C114.605 86.0789 113.847 86.9152 112.664 88.4932C112.79 88.9351 113.09 89.4716 113.532 90.1186C113.974 90.7813 114.384 91.1758 114.763 91.2863Z" fill="white" fill-opacity="0.5"/>
<path d="M177.15 95.1998C175.241 94.9788 173.063 94.7579 170.839 96.8567C167.415 100.092 167.004 104.92 168.63 106.656C170.507 108.66 173.663 107.761 174.546 107.571C175.635 107.335 176.55 106.877 176.566 106.845C176.803 106.419 176.503 106.009 176.219 105.946C176.172 105.93 175.13 106.419 174.341 106.372C172.574 106.277 171.533 105.441 171.012 104.368C170.034 102.332 171.028 98.1349 171.99 97.6772C172.511 97.4405 176.124 97.1249 177.276 98.8765C178.128 100.186 178.018 102.08 178.018 103.91C178.018 107.982 177.45 110.001 175.951 110.964C174.941 111.611 172.448 111.942 170.207 112.116C170.207 112.116 158.026 112.495 149.901 112.511C143.431 112.526 137.057 111.879 133.586 111.501C132.497 111.374 131.866 111.122 131.645 110.901C130.872 110.128 130.951 108.928 130.951 108.392V92.5645C130.951 90.6551 131.077 88.4932 131.124 87.1993C131.061 87.0257 130.888 86.9468 130.714 86.9468C129.152 87.7673 128.442 88.2407 127.432 88.7615C126.785 89.0929 126.154 90.1817 126.769 91.3021C127.227 92.1384 127.779 91.8228 127.795 92.312C127.795 92.312 128.063 98.845 128.032 101.354C128 103.879 127.779 111.753 127.779 111.753C127.7 113.457 127.432 114.609 128.332 114.657C128.978 114.688 129.231 113.883 129.83 113.947C131.172 114.089 141.38 115.177 149.569 115.177C155.344 115.177 167.856 115.051 172.858 113.994C174.578 113.631 176.124 112.747 177.418 111.737C179.611 110.033 181.031 108.171 181.031 105.157C181.031 102.632 181.031 101.259 181.031 100.028C181 98.2769 179.895 95.5154 177.15 95.1998Z" fill="white" fill-opacity="0.5"/>
<path d="M118.171 95.1998C116.261 94.9788 114.084 94.7579 111.859 96.8567C108.435 100.092 108.025 104.92 109.65 106.656C111.528 108.66 114.684 107.761 115.567 107.571C116.656 107.335 117.571 106.877 117.587 106.845C117.823 106.419 117.524 106.009 117.24 105.946C117.192 105.93 116.151 106.419 115.362 106.372C113.595 106.277 112.553 105.441 112.033 104.368C111.054 102.332 112.049 98.1349 113.011 97.6772C113.532 97.4405 117.145 97.1249 118.297 98.8765C119.149 100.186 119.038 102.08 119.038 103.91C119.038 107.982 118.47 110.001 116.971 110.964C115.962 111.611 113.469 111.942 111.228 112.116C111.228 112.116 92.2466 112.495 84.1207 112.511C79.5134 112.511 77.2414 112.116 75.1744 111.8C73.8332 111.595 73.2494 111.359 72.6656 110.901C71.8136 110.222 71.9714 108.171 71.9714 107.634V92.5645C71.9714 90.6551 72.0976 88.4932 72.1449 87.1993C72.066 87.0257 71.8925 86.9468 71.7189 86.9468C70.1569 87.7673 69.4468 88.2407 68.437 88.7615C67.7901 89.0929 67.159 90.1817 67.7743 91.3021C68.2319 92.1384 68.7841 91.8228 68.7999 92.312C68.7999 92.312 69.0681 98.845 69.0366 101.354C69.0208 103.027 68.9104 105.883 68.8472 107.619C68.579 109.544 67.9952 110.664 66.9696 111.327C65.9598 111.974 64.1295 112.179 63.025 112.1C61.6681 112.006 60.4058 111.722 59.822 111.264C58.97 110.585 59.1278 108.534 59.1278 107.997V96.6673C59.1751 95.2471 59.2382 93.8427 59.2698 92.8959C59.1909 92.7223 59.0173 92.6434 58.8437 92.6434C57.2817 93.464 56.6032 94.032 55.5618 94.4581C55.3094 94.5528 55.8301 95.2629 56.0036 96.762C56.0352 97.1407 56.0667 97.6299 56.0825 98.1664C55.9721 99.0028 55.1989 99.5866 55.1989 99.5866C54.4573 100.028 52.6428 101.18 50.6232 102.68C49.3609 103.611 47.7515 104.905 46.6313 106.277C45.6214 107.492 45.8108 110.917 46.9626 112.4C47.8778 113.599 49.3294 114.751 51.1281 114.436C52.8006 114.136 54.8045 112.132 55.5303 111.516C55.6407 111.422 55.8774 111.153 55.9879 111.169C56.0036 111.169 56.0036 111.169 56.0036 111.169C56.1772 112.353 56.6979 113.489 57.9759 114.325C59.4275 115.288 62.8988 115.335 64.9026 114.862C66.6067 114.451 67.8848 113.236 68.6895 112.211C68.9261 111.911 69.147 111.627 69.3679 111.359C69.9044 112.337 70.7564 113.252 71.8294 113.962C73.2968 114.925 75.5688 115.193 83.7578 115.193C89.5327 115.193 108.845 115.067 113.847 114.01C115.567 113.647 117.113 112.763 118.407 111.753C120.6 110.049 122.02 108.187 122.02 105.173C122.02 102.648 122.02 101.259 122.02 100.044C122.02 98.2769 120.916 95.5154 118.171 95.1998ZM54.3785 110.759C53.132 111.611 50.6074 111.816 49.424 110.727C48.3038 109.686 48.4458 107.429 49.3767 106.009C50.5285 104.242 53.5422 102.001 54.978 101.165C55.2463 101.007 55.5145 101.023 55.6407 101.102C55.7196 101.149 55.9879 101.386 55.9879 101.859C55.9879 103.027 55.9879 106.546 55.9879 108.36C55.9721 108.66 55.9721 108.897 55.9563 109.086C55.8301 109.67 55.262 110.144 54.3785 110.759Z" fill="white" fill-opacity="0.5"/>
<path d="M69.636 143.187C69.636 144.812 69.8727 145.807 70.5828 146.091C70.6932 146.217 70.6932 146.454 70.5512 146.58C70.0778 146.58 69.3678 146.738 68.6262 146.943C66.5435 147.511 63.7191 148 61.5891 148C56.9187 148 52.6269 146.659 49.6133 143.471C47.2623 141.025 46 137.79 46 134.208C46 130.737 47.1045 127.233 49.5344 124.535C52.1694 121.679 56.0508 119.754 61.9835 119.754C64.2241 119.754 66.3068 120.195 66.9695 120.369C67.7111 120.527 68.926 120.811 69.3994 120.732C69.3994 122.073 69.636 124.204 69.9832 126.65C69.8727 126.981 69.1627 127.012 68.926 126.776C67.8215 122.373 64.8867 120.984 60.879 120.984C53.2581 120.984 49.9288 126.618 49.9288 132.741C49.9288 140.583 53.8103 146.738 61.7153 146.738C64.1452 146.738 65.5968 146.201 66.0386 145.507C66.2279 145.223 66.433 144.481 66.433 143.187V141.546C66.433 138.122 66.3226 137.869 63.8769 137.585L62.1413 137.38C61.8257 137.222 61.8731 136.481 62.1413 136.354C63.2773 136.433 65.439 136.481 67.7584 136.481C69.2889 136.481 70.6301 136.433 71.9239 136.354C72.1921 136.512 72.2395 137.127 71.9555 137.38L71.3243 137.459C69.6676 137.664 69.636 138.8 69.636 140.883V143.187Z" fill="white" fill-opacity="0.5"/>
<path d="M93.6985 137.885C93.4303 136.985 93.2725 136.859 92.0891 136.859H86.1564C85.1782 136.859 84.9415 136.985 84.6575 137.838L83.2847 142.13C82.7009 143.96 82.4169 145.065 82.4169 145.522C82.4169 146.012 82.6063 146.264 83.553 146.343L84.8468 146.469C85.115 146.674 85.115 147.321 84.7679 147.495C83.7423 147.416 82.5274 147.416 80.6813 147.369C79.3875 147.369 77.9674 147.448 76.9103 147.495C76.6736 147.337 76.5947 146.674 76.8314 146.469L78.1252 146.343C79.0719 146.264 79.9239 145.807 80.4762 144.339C81.1862 142.461 82.2907 139.81 83.9317 135.234L87.9394 124.219C88.4916 122.752 88.7283 121.979 88.6021 121.316C89.5488 121.032 90.2115 120.29 90.6375 119.769C90.8742 119.769 91.1424 119.848 91.2213 120.132C91.7262 121.931 92.3573 123.809 92.9569 125.608L98.3373 142.019C99.4734 145.522 99.9941 146.138 101.682 146.343L102.74 146.469C103.008 146.674 102.929 147.321 102.74 147.495C101.13 147.416 99.7574 147.369 97.9902 147.369C96.1126 147.369 94.6136 147.448 93.4776 147.495C93.162 147.337 93.1305 146.674 93.3987 146.469L94.5347 146.343C95.3552 146.264 95.9075 146.012 95.9075 145.601C95.9075 145.16 95.7181 144.418 95.4026 143.44L93.6985 137.885ZM85.9197 134.24C85.6042 135.187 85.6515 135.218 86.7402 135.218H91.5684C92.7045 135.218 92.7833 135.06 92.4362 133.956L90.3219 127.296C90.0063 126.318 89.6592 125.214 89.4225 124.724H89.3437C89.2332 124.929 88.8387 125.908 88.397 127.139L85.9197 134.24Z" fill="white" fill-opacity="0.5"/>
<path d="M114.147 131.683C114.147 132.804 114.258 132.804 115.441 132.804H118.108C119.717 132.804 120.979 132.725 121.453 132.551C121.879 132.393 122.194 132.173 122.431 131.099L122.778 129.443C122.967 129.19 123.646 129.19 123.804 129.443C123.804 130.437 123.646 132.094 123.646 133.624C123.646 135.123 123.804 136.686 123.804 137.648C123.646 137.901 123.062 137.901 122.778 137.648L122.383 136.039C122.194 135.297 121.879 134.713 121.121 134.461C120.569 134.287 119.591 134.256 118.092 134.256H115.425C114.242 134.256 114.131 134.303 114.131 135.376V141.136C114.131 145.491 114.21 146.106 116.53 146.312L117.871 146.438C118.108 146.611 118.029 147.353 117.792 147.479C115.473 147.4 114.147 147.353 112.569 147.353C110.834 147.353 109.508 147.4 107.662 147.479C107.426 147.353 107.347 146.69 107.583 146.438L108.562 146.312C110.834 146.027 110.913 145.475 110.913 141.136V126.223C110.913 121.868 110.834 121.3 108.562 121L107.93 120.921C107.694 120.764 107.773 120.006 108.009 119.88C109.666 119.959 110.991 120.006 112.569 120.006H119.796C122.305 120.006 124.592 120.006 125.097 119.88C125.097 121.789 125.129 123.778 125.208 125.356C125.097 125.608 124.545 125.734 124.261 125.482C123.946 123.62 123.472 122.089 121.516 121.553C120.648 121.3 119.354 121.3 117.713 121.3H115.315C114.131 121.3 114.131 121.379 114.131 122.957V131.683H114.147Z" fill="white" fill-opacity="0.5"/>
<path d="M133.507 126.223C133.507 121.868 133.429 121.205 130.951 121L129.973 120.921C129.736 120.764 129.815 120.006 130.052 119.88C132.245 119.959 133.586 120.006 135.164 120.006C136.695 120.006 138.036 119.959 139.992 119.88C140.229 120.006 140.308 120.748 140.071 120.921L139.125 121C136.805 121.205 136.726 121.868 136.726 126.223V140.646C136.726 143.25 136.837 144.339 137.547 145.128C137.973 145.586 138.73 146.075 141.823 146.075C145.168 146.075 145.988 145.901 146.619 145.538C147.408 145.033 148.434 143.55 149.207 141.435C149.444 141.23 150.185 141.388 150.185 141.688C150.185 142.146 149.081 146.375 148.529 147.495C146.525 147.416 142.801 147.369 138.746 147.369H135.148C133.492 147.369 132.245 147.416 130.036 147.495C129.8 147.369 129.721 146.706 129.957 146.454L131.141 146.327C133.413 146.075 133.492 145.491 133.492 141.151V126.223H133.507Z" fill="white" fill-opacity="0.5"/>
<path d="M171.739 137.885C171.47 136.985 171.313 136.859 170.129 136.859H164.196C163.218 136.859 162.982 136.985 162.698 137.838L161.325 142.13C160.741 143.96 160.457 145.065 160.457 145.522C160.457 146.012 160.646 146.264 161.593 146.343L162.887 146.469C163.155 146.674 163.155 147.321 162.808 147.495C161.782 147.416 160.567 147.416 158.721 147.369C157.428 147.369 156.007 147.448 154.95 147.495C154.714 147.337 154.635 146.674 154.871 146.469L156.165 146.343C157.112 146.264 157.964 145.807 158.516 144.339C159.226 142.461 160.315 139.81 161.972 135.234L165.979 124.219C166.532 122.752 166.768 121.979 166.642 121.316C167.589 121.032 168.252 120.29 168.678 119.769C168.914 119.769 169.182 119.848 169.261 120.132C169.766 121.931 170.397 123.809 170.997 125.608L176.377 142.019C177.513 145.522 178.034 146.138 179.722 146.343L180.78 146.469C181.048 146.674 180.969 147.321 180.78 147.495C179.17 147.416 177.797 147.369 176.03 147.369C174.153 147.369 172.654 147.448 171.518 147.495C171.202 147.337 171.171 146.674 171.439 146.469L172.575 146.343C173.395 146.264 173.948 146.012 173.948 145.601C173.948 145.16 173.758 144.418 173.443 143.44L171.739 137.885ZM163.976 134.24C163.66 135.187 163.707 135.218 164.796 135.218H169.624C170.76 135.218 170.839 135.06 170.492 133.956L168.378 127.296C168.062 126.318 167.715 125.214 167.478 124.724H167.399C167.289 124.929 166.895 125.908 166.453 127.139L163.976 134.24Z" fill="white" fill-opacity="0.5"/>
</g>
<defs>
<clipPath id="clip0_238_568">
<rect width="135" height="62" fill="white" transform="translate(46 86)"/>
</clipPath>
</defs>
</svg>
