<svg width="214" height="221" viewBox="0 0 214 221" fill="none" xmlns="http://www.w3.org/2000/svg">
<mask id="mask0_252_615" style="mask-type:alpha" maskUnits="userSpaceOnUse" x="0" y="0" width="214" height="221">
<rect width="214" height="221" rx="9" fill="#2D2D2D"/>
</mask>
<g mask="url(#mask0_252_615)">
<rect x="-64.6279" y="-14" width="343.256" height="401" fill="#2D2D2D"/>
</g>
<g clip-path="url(#clip0_252_615)">
<path d="M155.945 89.3711C156.587 89.984 157.029 90.3118 157.285 90.3831C157.485 90.4258 157.813 90.1123 158.255 89.4139C158.64 88.801 158.854 88.3592 158.882 88.0884C158.112 86.8341 157.442 86.0359 156.872 85.6938C156.758 85.7651 156.43 86.1072 155.888 86.7486C155.289 87.4612 155.004 87.9173 155.018 88.1026C155.004 88.3449 155.318 88.7725 155.945 89.3711Z" fill="white" fill-opacity="0.5"/>
<path d="M161.378 89.8273C161.763 89.8843 162.219 89.5423 162.732 88.7726C163.146 88.174 163.388 87.7607 163.431 87.5611C163.431 87.1905 163.146 86.6917 162.59 86.0503C162.034 85.4089 161.692 85.0811 161.535 85.0383C161.235 85.1238 160.551 85.8793 159.481 87.3046C159.596 87.7036 159.866 88.1882 160.266 88.7726C160.665 89.3712 161.036 89.7133 161.378 89.8273Z" fill="white" fill-opacity="0.5"/>
<path d="M45.9511 87.3329C46.5927 87.9458 47.0348 88.2736 47.2914 88.3448C47.4911 88.3876 47.819 88.074 48.261 87.3756C48.646 86.7628 48.8599 86.3209 48.8884 86.0501C48.1184 84.7958 47.4483 83.9977 46.8779 83.6414C46.7638 83.7126 46.4359 84.0547 45.894 84.6961C45.2952 85.4087 45.01 85.8648 45.0242 86.0501C44.9957 86.2924 45.3094 86.72 45.9511 87.3329Z" fill="white" fill-opacity="0.5"/>
<path d="M51.3695 87.7748C51.7545 87.8319 52.2108 87.4898 52.7241 86.7201C53.1376 86.1215 53.38 85.7082 53.4228 85.5086C53.4228 85.138 53.1376 84.6392 52.5815 83.9978C52.0254 83.3564 51.6832 83.0286 51.5263 82.9858C51.2412 83.0856 50.5567 83.841 49.4873 85.2663C49.6014 85.6654 49.8723 86.15 50.2715 86.7344C50.6565 87.3187 51.0273 87.6751 51.3695 87.7748Z" fill="white" fill-opacity="0.5"/>
<path d="M105.141 87.7748C105.526 87.8319 105.982 87.4898 106.495 86.7201C106.909 86.1215 107.151 85.7082 107.194 85.5086C107.194 85.138 106.909 84.6392 106.353 83.9978C105.796 83.3564 105.454 83.0286 105.297 82.9858C104.998 83.0714 104.314 83.8268 103.244 85.2521C103.358 85.6511 103.629 86.1358 104.028 86.7201C104.428 87.3187 104.798 87.6751 105.141 87.7748Z" fill="white" fill-opacity="0.5"/>
<path d="M161.52 91.3095C159.795 91.11 157.827 90.9105 155.817 92.8061C152.723 95.728 152.352 100.089 153.821 101.657C155.517 103.467 158.369 102.655 159.168 102.484C160.152 102.27 160.979 101.857 160.993 101.828C161.207 101.443 160.936 101.073 160.679 101.016C160.636 101.002 159.695 101.443 158.982 101.401C157.385 101.315 156.444 100.56 155.974 99.5905C155.09 97.7519 155.988 93.9606 156.858 93.5473C157.328 93.3335 160.594 93.0484 161.634 94.6305C162.404 95.8135 162.305 97.5238 162.305 99.1772C162.305 102.854 161.791 104.679 160.437 105.548C159.524 106.133 157.271 106.432 155.246 106.589C155.246 106.589 144.238 106.931 136.895 106.945C131.049 106.959 125.288 106.375 122.151 106.033C121.167 105.919 120.597 105.691 120.397 105.491C119.699 104.793 119.77 103.71 119.77 103.225V88.9293C119.77 87.2047 119.884 85.252 119.927 84.0833C119.87 83.9265 119.713 83.8552 119.556 83.8552C118.145 84.5964 117.503 85.024 116.59 85.4943C116.006 85.7936 115.435 86.7771 115.991 87.789C116.405 88.5445 116.904 88.2594 116.918 88.7012C116.918 88.7012 117.161 94.602 117.132 96.8682C117.104 99.1487 116.904 106.261 116.904 106.261C116.833 107.8 116.59 108.841 117.403 108.883C117.988 108.912 118.216 108.185 118.758 108.242C119.97 108.37 129.195 109.354 136.596 109.354C141.814 109.354 153.122 109.24 157.642 108.285C159.196 107.957 160.594 107.159 161.763 106.247C163.745 104.707 165.028 103.025 165.028 100.303C165.028 98.0227 165.028 96.7827 165.028 95.671C165 94.0889 164.001 91.5946 161.52 91.3095Z" fill="white" fill-opacity="0.5"/>
<path d="M108.22 91.3095C106.495 91.11 104.527 90.9105 102.517 92.8061C99.4225 95.728 99.0517 100.089 100.52 101.657C102.217 103.467 105.069 102.655 105.868 102.484C106.851 102.27 107.678 101.857 107.693 101.828C107.907 101.443 107.636 101.073 107.379 101.016C107.336 101.002 106.395 101.443 105.682 101.401C104.085 101.315 103.144 100.56 102.674 99.5905C101.789 97.7519 102.688 93.9606 103.558 93.5473C104.028 93.3335 107.293 93.0484 108.334 94.6305C109.104 95.8135 109.005 97.5238 109.005 99.1772C109.005 102.854 108.491 104.679 107.137 105.548C106.224 106.133 103.971 106.432 101.946 106.589C101.946 106.589 84.7927 106.931 77.4494 106.945C73.2857 106.945 71.2324 106.589 69.3645 106.304C68.1525 106.118 67.6249 105.905 67.0973 105.491C66.3273 104.878 66.4699 103.025 66.4699 102.541V88.9293C66.4699 87.2047 66.584 85.252 66.6268 84.0833C66.5555 83.9265 66.3986 83.8552 66.2418 83.8552C64.8301 84.5964 64.1885 85.024 63.2759 85.4943C62.6913 85.7936 62.1209 86.7771 62.677 87.789C63.0905 88.5445 63.5896 88.2594 63.6039 88.7012C63.6039 88.7012 63.8463 94.602 63.8178 96.8682C63.8035 98.379 63.7037 100.959 63.6467 102.527C63.4042 104.266 62.8767 105.277 61.9498 105.876C61.0373 106.46 59.3832 106.646 58.3851 106.574C57.1588 106.489 56.0181 106.232 55.4905 105.819C54.7205 105.206 54.8631 103.353 54.8631 102.869V92.6351C54.9059 91.3523 54.9629 90.0838 54.9914 89.2286C54.9201 89.0718 54.7633 89.0006 54.6064 89.0006C53.1948 89.7417 52.5817 90.2548 51.6406 90.6396C51.4124 90.7252 51.883 91.3665 52.0398 92.7206C52.0683 93.0627 52.0969 93.5045 52.1111 93.9891C52.0113 94.7445 51.3126 95.2719 51.3126 95.2719C50.6424 95.671 49.0027 96.7114 47.1775 98.0655C46.0368 98.9064 44.5824 100.075 43.57 101.315C42.6574 102.413 42.8285 105.506 43.8694 106.845C44.6964 107.929 46.0083 108.969 47.6338 108.684C49.1452 108.413 50.9561 106.603 51.6121 106.047C51.7119 105.962 51.9258 105.719 52.0256 105.734C52.0398 105.734 52.0398 105.734 52.0398 105.734C52.1967 106.803 52.6672 107.829 53.8222 108.584C55.134 109.454 58.271 109.496 60.0819 109.069C61.6219 108.698 62.7768 107.601 63.5041 106.674C63.7179 106.403 63.9176 106.147 64.1172 105.905C64.602 106.788 65.372 107.615 66.3416 108.256C67.6677 109.126 69.721 109.368 77.1214 109.368C82.3402 109.368 99.7932 109.254 104.313 108.299C105.868 107.971 107.265 107.173 108.434 106.261C110.416 104.722 111.699 103.04 111.699 100.317C111.699 98.037 111.699 96.7827 111.699 95.6852C111.699 94.0889 110.701 91.5946 108.22 91.3095ZM50.5711 105.363C49.4447 106.133 47.1632 106.318 46.0938 105.334C45.0814 104.394 45.2098 102.356 46.051 101.073C47.092 99.4765 49.8154 97.4526 51.113 96.6972C51.3554 96.5546 51.5978 96.5689 51.7119 96.6402C51.7832 96.6829 52.0256 96.8967 52.0256 97.3243C52.0256 98.379 52.0256 101.557 52.0256 103.197C52.0113 103.467 52.0113 103.681 51.997 103.852C51.883 104.38 51.3697 104.807 50.5711 105.363Z" fill="white" fill-opacity="0.5"/>
<path d="M64.36 134.653C64.36 136.121 64.5739 137.019 65.2155 137.276C65.3153 137.39 65.3153 137.603 65.187 137.717C64.7592 137.717 64.1176 137.86 63.4474 138.045C61.5652 138.558 59.0129 139 57.0879 139C52.8672 139 48.9888 137.789 46.2653 134.91C44.1407 132.7 43 129.778 43 126.543C43 123.407 43.9981 120.243 46.194 117.806C48.5753 115.226 52.083 113.487 57.4444 113.487C59.4691 113.487 61.3513 113.886 61.9502 114.043C62.6204 114.186 63.7183 114.442 64.1461 114.371C64.1461 115.582 64.36 117.507 64.6737 119.716C64.5739 120.015 63.9322 120.044 63.7183 119.83C62.7202 115.853 60.068 114.599 56.4462 114.599C49.5591 114.599 46.5505 119.687 46.5505 125.218C46.5505 132.301 50.0582 137.86 57.202 137.86C59.3978 137.86 60.7097 137.375 61.1089 136.748C61.28 136.492 61.4654 135.822 61.4654 134.653V133.171C61.4654 130.078 61.3656 129.85 59.1554 129.593L57.587 129.408C57.3018 129.265 57.3446 128.595 57.587 128.481C58.6136 128.553 60.5671 128.595 62.6632 128.595C64.0463 128.595 65.2583 128.553 66.4275 128.481C66.6699 128.624 66.7127 129.18 66.4561 129.408L65.8857 129.479C64.3885 129.664 64.36 130.691 64.36 132.572V134.653Z" fill="white" fill-opacity="0.5"/>
<path d="M86.1054 129.864C85.863 129.051 85.7204 128.937 84.651 128.937H79.2896C78.4056 128.937 78.1917 129.051 77.935 129.821L76.6945 133.698C76.1669 135.351 75.9102 136.349 75.9102 136.762C75.9102 137.204 76.0813 137.432 76.9369 137.503L78.1061 137.618C78.3485 137.803 78.3485 138.387 78.0348 138.544C77.108 138.473 76.01 138.473 74.3417 138.43C73.1725 138.43 71.8892 138.501 70.9338 138.544C70.72 138.401 70.6487 137.803 70.8625 137.618L72.0318 137.503C72.8873 137.432 73.6573 137.019 74.1564 135.693C74.798 133.997 75.7962 131.603 77.2791 127.469L80.9009 117.521C81.3999 116.195 81.6138 115.497 81.4998 114.898C82.3553 114.642 82.9542 113.972 83.3392 113.501C83.5531 113.501 83.7955 113.573 83.8668 113.829C84.323 115.454 84.8934 117.15 85.4352 118.775L90.2976 133.598C91.3242 136.762 91.7948 137.318 93.3205 137.503L94.2758 137.618C94.5182 137.803 94.4469 138.387 94.2758 138.544C92.8214 138.473 91.5809 138.43 89.9839 138.43C88.287 138.43 86.9324 138.501 85.9058 138.544C85.6206 138.401 85.5921 137.803 85.8345 137.618L86.8611 137.503C87.6026 137.432 88.1017 137.204 88.1017 136.834C88.1017 136.435 87.9306 135.765 87.6454 134.881L86.1054 129.864ZM79.0757 126.571C78.7905 127.427 78.8333 127.455 79.8172 127.455H84.1804C85.2071 127.455 85.2784 127.313 84.9647 126.315L83.054 120.3C82.7688 119.416 82.4551 118.419 82.2412 117.977H82.1699C82.0701 118.162 81.7136 119.046 81.3144 120.158L79.0757 126.571Z" fill="white" fill-opacity="0.5"/>
<path d="M104.584 124.263C104.584 125.275 104.684 125.275 105.754 125.275H108.163C109.618 125.275 110.758 125.203 111.186 125.046C111.571 124.904 111.856 124.704 112.07 123.735L112.384 122.239C112.555 122.011 113.168 122.011 113.311 122.239C113.311 123.137 113.168 124.633 113.168 126.016C113.168 127.37 113.311 128.781 113.311 129.65C113.168 129.878 112.641 129.878 112.384 129.65L112.028 128.196C111.856 127.526 111.571 126.999 110.887 126.771C110.388 126.614 109.504 126.586 108.149 126.586H105.739C104.67 126.586 104.57 126.629 104.57 127.598V132.8C104.57 136.734 104.641 137.29 106.737 137.475L107.949 137.589C108.163 137.746 108.092 138.416 107.878 138.53C105.782 138.459 104.584 138.416 103.158 138.416C101.59 138.416 100.392 138.459 98.7239 138.53C98.51 138.416 98.4387 137.817 98.6526 137.589L99.5366 137.475C101.59 137.219 101.661 136.72 101.661 132.8V119.331C101.661 115.397 101.59 114.884 99.5366 114.613L98.9663 114.542C98.7524 114.399 98.8237 113.715 99.0376 113.601C100.535 113.673 101.733 113.715 103.158 113.715H109.689C111.956 113.715 114.024 113.715 114.48 113.601C114.48 115.326 114.509 117.122 114.58 118.547C114.48 118.775 113.981 118.889 113.724 118.661C113.439 116.979 113.011 115.597 111.243 115.112C110.459 114.884 109.29 114.884 107.807 114.884H105.639C104.57 114.884 104.57 114.955 104.57 116.381V124.263H104.584Z" fill="white" fill-opacity="0.5"/>
<path d="M122.081 119.331C122.081 115.397 122.009 114.799 119.771 114.613L118.887 114.542C118.673 114.399 118.744 113.715 118.958 113.601C120.94 113.673 122.152 113.715 123.578 113.715C124.961 113.715 126.173 113.673 127.941 113.601C128.155 113.715 128.226 114.385 128.012 114.542L127.157 114.613C125.061 114.799 124.989 115.397 124.989 119.331V132.358C124.989 134.71 125.089 135.693 125.731 136.406C126.116 136.819 126.8 137.261 129.595 137.261C132.618 137.261 133.359 137.104 133.93 136.777C134.643 136.321 135.57 134.981 136.268 133.071C136.482 132.886 137.152 133.028 137.152 133.299C137.152 133.712 136.154 137.532 135.655 138.544C133.844 138.473 130.479 138.43 126.815 138.43H123.564C122.066 138.43 120.94 138.473 118.944 138.544C118.73 138.43 118.658 137.831 118.872 137.603L119.942 137.489C121.995 137.261 122.066 136.734 122.066 132.814V119.331H122.081Z" fill="white" fill-opacity="0.5"/>
<path d="M156.63 129.864C156.387 129.051 156.245 128.937 155.175 128.937H149.814C148.93 128.937 148.716 129.051 148.459 129.821L147.219 133.698C146.691 135.351 146.435 136.349 146.435 136.762C146.435 137.204 146.606 137.432 147.461 137.503L148.631 137.618C148.873 137.803 148.873 138.387 148.559 138.544C147.632 138.473 146.534 138.473 144.866 138.43C143.697 138.43 142.414 138.501 141.458 138.544C141.244 138.401 141.173 137.803 141.387 137.618L142.556 137.503C143.412 137.432 144.182 137.019 144.681 135.693C145.322 133.997 146.306 131.603 147.804 127.469L151.425 117.521C151.924 116.195 152.138 115.497 152.024 114.898C152.88 114.642 153.479 113.972 153.864 113.501C154.077 113.501 154.32 113.573 154.391 113.829C154.847 115.454 155.418 117.15 155.96 118.775L160.822 133.598C161.849 136.762 162.319 137.318 163.845 137.503L164.8 137.618C165.043 137.803 164.971 138.387 164.8 138.544C163.346 138.473 162.105 138.43 160.508 138.43C158.811 138.43 157.457 138.501 156.43 138.544C156.145 138.401 156.117 137.803 156.359 137.618L157.386 137.503C158.127 137.432 158.626 137.204 158.626 136.834C158.626 136.435 158.455 135.765 158.17 134.881L156.63 129.864ZM149.614 126.571C149.329 127.427 149.372 127.455 150.356 127.455H154.719C155.746 127.455 155.817 127.313 155.503 126.315L153.593 120.3C153.307 119.416 152.994 118.419 152.78 117.977H152.709C152.609 118.162 152.252 119.046 151.853 120.158L149.614 126.571Z" fill="white" fill-opacity="0.5"/>
</g>
<defs>
<clipPath id="clip0_252_615">
<rect width="122" height="56" fill="white" transform="translate(43 83)"/>
</clipPath>
</defs>
</svg>
