<svg width="111" height="115" viewBox="0 0 111 115" fill="none" xmlns="http://www.w3.org/2000/svg">
<mask id="mask0_242_4543" style="mask-type:alpha" maskUnits="userSpaceOnUse" x="0" y="0" width="111" height="115">
<rect y="0.64502" width="110.142" height="113.744" rx="9" fill="#2D2D2D"/>
</mask>
<g mask="url(#mask0_242_4543)">
<rect x="-33.2627" y="-6.56073" width="176.667" height="206.387" fill="#2D2D2D"/>
</g>
<g clip-path="url(#clip0_242_4543)">
<path d="M80.2624 46.6423C80.5927 46.9577 80.8202 47.1264 80.9523 47.1631C81.055 47.1851 81.2238 47.0237 81.4513 46.6643C81.6495 46.3488 81.7596 46.1214 81.7742 45.982C81.3779 45.3365 81.033 44.9257 80.7395 44.7496C80.6808 44.7863 80.512 44.9624 80.2331 45.2925C79.9249 45.6593 79.7781 45.894 79.7854 45.9894C79.7781 46.1141 79.9395 46.3342 80.2624 46.6423Z" fill="white" fill-opacity="0.5"/>
<path d="M83.0581 46.877C83.2562 46.9063 83.4911 46.7303 83.7553 46.3341C83.9681 46.026 84.0929 45.8133 84.1149 45.7106C84.1149 45.5199 83.9681 45.2631 83.6819 44.933C83.3957 44.6029 83.2195 44.4342 83.1388 44.4122C82.9847 44.4562 82.6324 44.845 82.082 45.5786C82.1407 45.784 82.2802 46.0334 82.4857 46.3341C82.6912 46.6422 82.882 46.8183 83.0581 46.877Z" fill="white" fill-opacity="0.5"/>
<path d="M23.6508 45.5933C23.981 45.9087 24.2085 46.0774 24.3406 46.1141C24.4434 46.1361 24.6122 45.9747 24.8397 45.6153C25.0378 45.2998 25.1479 45.0724 25.1626 44.933C24.7663 44.2875 24.4214 43.8767 24.1278 43.6933C24.0691 43.73 23.9003 43.906 23.6214 44.2361C23.3132 44.6029 23.1664 44.8377 23.1738 44.933C23.1591 45.0577 23.3205 45.2778 23.6508 45.5933Z" fill="white" fill-opacity="0.5"/>
<path d="M26.4394 45.8206C26.6376 45.85 26.8724 45.6739 27.1366 45.2778C27.3494 44.9697 27.4742 44.757 27.4962 44.6543C27.4962 44.4635 27.3494 44.2068 27.0632 43.8767C26.777 43.5466 26.6009 43.3778 26.5202 43.3558C26.3734 43.4072 26.0211 43.796 25.4707 44.5296C25.5294 44.735 25.6689 44.9844 25.8743 45.2851C26.0725 45.5859 26.2633 45.7693 26.4394 45.8206Z" fill="white" fill-opacity="0.5"/>
<path d="M54.1138 45.8206C54.3119 45.85 54.5467 45.6739 54.8109 45.2778C55.0238 44.9697 55.1485 44.757 55.1706 44.6543C55.1706 44.4635 55.0238 44.2068 54.7376 43.8767C54.4513 43.5466 54.2752 43.3778 54.1945 43.3558C54.0404 43.3998 53.6881 43.7886 53.1377 44.5222C53.1964 44.7276 53.3358 44.977 53.5413 45.2778C53.7468 45.5859 53.9376 45.7693 54.1138 45.8206Z" fill="white" fill-opacity="0.5"/>
<path d="M83.1316 47.6399C82.2436 47.5372 81.2308 47.4345 80.1961 48.4102C78.6035 49.914 78.4127 52.1587 79.1686 52.9657C80.042 53.8973 81.5097 53.4792 81.9207 53.3911C82.4271 53.2811 82.8527 53.0684 82.8601 53.0537C82.9701 52.8556 82.8307 52.6649 82.6986 52.6356C82.6766 52.6282 82.1922 52.8556 81.8253 52.8336C81.0033 52.7896 80.519 52.4008 80.2768 51.902C79.8218 50.9557 80.2841 49.0044 80.7318 48.7916C80.974 48.6816 82.6546 48.5349 83.1903 49.3492C83.5866 49.958 83.5352 50.8383 83.5352 51.6893C83.5352 53.5819 83.271 54.5208 82.5738 54.9683C82.1042 55.2691 80.9446 55.4231 79.9025 55.5038C79.9025 55.5038 74.2369 55.6799 70.4574 55.6872C67.4485 55.6946 64.4836 55.3938 62.8691 55.2177C62.3627 55.1591 62.0692 55.0417 61.9664 54.939C61.6068 54.5795 61.6435 54.022 61.6435 53.7726V46.4149C61.6435 45.5272 61.7022 44.5222 61.7242 43.9207C61.6949 43.84 61.6142 43.8033 61.5334 43.8033C60.8069 44.1848 60.4766 44.4049 60.007 44.647C59.7061 44.801 59.4125 45.3072 59.6987 45.828C59.9116 46.2168 60.1684 46.0701 60.1758 46.2975C60.1758 46.2975 60.3005 49.3345 60.2858 50.5009C60.2712 51.6746 60.1684 55.3351 60.1684 55.3351C60.1317 56.1274 60.007 56.6629 60.4253 56.6849C60.7262 56.6996 60.8436 56.3254 61.1225 56.3548C61.7463 56.4208 66.4945 56.927 70.3033 56.927C72.9893 56.927 78.809 56.8683 81.1354 56.3768C81.9354 56.2081 82.6546 55.7973 83.2564 55.3278C84.2765 54.5355 84.9369 53.6699 84.9369 52.2688C84.9369 51.0951 84.9369 50.4569 84.9369 49.8847C84.9223 49.0704 84.4086 47.7866 83.1316 47.6399Z" fill="white" fill-opacity="0.5"/>
<path d="M55.6988 47.6399C54.8108 47.5372 53.798 47.4345 52.7633 48.4102C51.1707 49.914 50.9799 52.1587 51.7358 52.9657C52.6091 53.8973 54.0769 53.4792 54.4879 53.3911C54.9943 53.2811 55.4199 53.0684 55.4272 53.0537C55.5373 52.8556 55.3979 52.6649 55.2658 52.6356C55.2438 52.6282 54.7594 52.8556 54.3925 52.8336C53.5705 52.7896 53.0862 52.4008 52.844 51.902C52.389 50.9557 52.8513 49.0044 53.299 48.7916C53.5412 48.6816 55.2218 48.5349 55.7575 49.3492C56.1538 49.958 56.1024 50.8383 56.1024 51.6893C56.1024 53.5819 55.8382 54.5208 55.141 54.9683C54.6713 55.2691 53.5118 55.4231 52.4697 55.5038C52.4697 55.5038 43.6411 55.6799 39.8616 55.6872C37.7187 55.6872 36.6619 55.5038 35.7005 55.3571C35.0767 55.2618 34.8052 55.1517 34.5336 54.939C34.1373 54.6235 34.2107 53.6699 34.2107 53.4205V46.4149C34.2107 45.5272 34.2694 44.5222 34.2914 43.9207C34.2547 43.84 34.174 43.8033 34.0933 43.8033C33.3667 44.1848 33.0365 44.4049 32.5668 44.647C32.2659 44.801 31.9724 45.3072 32.2586 45.828C32.4714 46.2168 32.7283 46.0701 32.7356 46.2975C32.7356 46.2975 32.8604 49.3345 32.8457 50.5009C32.8384 51.2785 32.787 52.6062 32.7576 53.4132C32.6329 54.3081 32.3613 54.8289 31.8843 55.137C31.4146 55.4378 30.5633 55.5332 30.0496 55.4965C29.4185 55.4525 28.8314 55.3204 28.5598 55.1077C28.1635 54.7923 28.2369 53.8386 28.2369 53.5892V48.3222C28.2589 47.6619 28.2883 47.0091 28.303 46.5689C28.2663 46.4882 28.1855 46.4515 28.1048 46.4515C27.3783 46.833 27.0627 47.0971 26.5783 47.2952C26.4609 47.3392 26.7031 47.6693 26.7838 48.3662C26.7985 48.5422 26.8132 48.7696 26.8205 49.019C26.7691 49.4078 26.4095 49.6793 26.4095 49.6793C26.0646 49.8847 25.2207 50.4202 24.2813 51.1171C23.6942 51.5499 22.9456 52.1514 22.4246 52.7896C21.9549 53.3545 22.0429 54.9463 22.5787 55.6359C23.0043 56.1934 23.6795 56.7289 24.5161 56.5822C25.294 56.4428 26.2261 55.5112 26.5637 55.2251C26.615 55.1811 26.7251 55.0564 26.7765 55.0637C26.7838 55.0637 26.7838 55.0637 26.7838 55.0637C26.8645 55.6139 27.1067 56.142 27.7012 56.5308C28.3763 56.9783 29.9909 57.0003 30.9229 56.7803C31.7155 56.5895 32.31 56.0247 32.6842 55.5479C32.7943 55.4085 32.8971 55.2764 32.9998 55.1517C33.2493 55.6065 33.6456 56.032 34.1447 56.3621C34.8272 56.8096 35.884 56.9343 39.6928 56.9343C42.3788 56.9343 51.3615 56.8756 53.6879 56.3841C54.4879 56.2154 55.2071 55.8046 55.8089 55.3351C56.829 54.5429 57.4895 53.6772 57.4895 52.2761C57.4895 51.1024 57.4895 50.4569 57.4895 49.892C57.4895 49.0704 56.9757 47.7866 55.6988 47.6399ZM26.0279 54.873C25.4482 55.2691 24.2739 55.3645 23.7235 54.8583C23.2025 54.3741 23.2685 53.3251 23.7015 52.6649C24.2372 51.8433 25.639 50.8016 26.3068 50.4128C26.4316 50.3395 26.5563 50.3468 26.615 50.3835C26.6517 50.4055 26.7765 50.5155 26.7765 50.7356C26.7765 51.2785 26.7765 52.9143 26.7765 53.7579C26.7691 53.8973 26.7691 54.0073 26.7618 54.0954C26.7031 54.3668 26.4389 54.5869 26.0279 54.873Z" fill="white" fill-opacity="0.5"/>
<path d="M33.1244 69.9479C33.1244 70.7035 33.2345 71.1656 33.5647 71.2977C33.6161 71.3563 33.6161 71.4664 33.5501 71.5251C33.3299 71.5251 32.9997 71.5984 32.6547 71.6938C31.686 71.9579 30.3724 72.1853 29.3816 72.1853C27.2093 72.1853 25.2132 71.5617 23.8114 70.0799C22.718 68.9429 22.1309 67.4391 22.1309 65.7739C22.1309 64.16 22.6446 62.5315 23.7748 61.277C25.0003 59.9493 26.8057 59.0543 29.5651 59.0543C30.6072 59.0543 31.5759 59.2597 31.8842 59.3404C32.2291 59.4138 32.7942 59.5458 33.0143 59.5091C33.0143 60.1327 33.1244 61.123 33.2859 62.26C33.2345 62.4141 32.9043 62.4288 32.7942 62.3187C32.2805 60.2721 30.9154 59.6265 29.0514 59.6265C25.5067 59.6265 23.9582 62.2454 23.9582 65.0916C23.9582 68.7375 25.7636 71.5984 29.4403 71.5984C30.5705 71.5984 31.2457 71.349 31.4512 71.0262C31.5392 70.8942 31.6346 70.5494 31.6346 69.9479V69.185C31.6346 67.5931 31.5833 67.4757 30.4457 67.3437L29.6385 67.2483C29.4917 67.175 29.5137 66.8302 29.6385 66.7715C30.1669 66.8082 31.1723 66.8302 32.2511 66.8302C32.963 66.8302 33.5868 66.8082 34.1885 66.7715C34.3133 66.8449 34.3353 67.131 34.2032 67.2483L33.9097 67.285C33.1391 67.3804 33.1244 67.9085 33.1244 68.8769V69.9479Z" fill="white" fill-opacity="0.5"/>
<path d="M44.316 67.4831C44.1912 67.0649 44.1178 67.0062 43.5674 67.0062H40.808C40.353 67.0062 40.2429 67.0649 40.1108 67.4611L39.4723 69.4564C39.2008 70.3073 39.0687 70.8208 39.0687 71.0336C39.0687 71.261 39.1568 71.3783 39.5971 71.415L40.1989 71.4737C40.3236 71.5691 40.3236 71.8698 40.1622 71.9505C39.6852 71.9138 39.1201 71.9138 38.2614 71.8918C37.6597 71.8918 36.9992 71.9285 36.5075 71.9505C36.3974 71.8772 36.3607 71.5691 36.4708 71.4737L37.0725 71.415C37.5129 71.3783 37.9092 71.1656 38.166 70.4834C38.4963 69.6104 39.01 68.378 39.7732 66.2507L41.6373 61.1303C41.8942 60.4481 42.0042 60.0886 41.9455 59.7805C42.3859 59.6485 42.6941 59.3037 42.8922 59.0616C43.0023 59.0616 43.1271 59.0983 43.1638 59.2304C43.3986 60.0666 43.6922 60.9396 43.971 61.7759L46.4736 69.405C47.002 71.0336 47.2442 71.3197 48.0294 71.415L48.5211 71.4737C48.6459 71.5691 48.6092 71.8698 48.5211 71.9505C47.7726 71.9138 47.1341 71.8918 46.3121 71.8918C45.4388 71.8918 44.7416 71.9285 44.2132 71.9505C44.0664 71.8772 44.0518 71.5691 44.1765 71.4737L44.7049 71.415C45.0865 71.3783 45.3434 71.261 45.3434 71.0702C45.3434 70.8648 45.2553 70.5201 45.1086 70.0652L44.316 67.4831ZM40.6979 65.7885C40.5512 66.2287 40.5732 66.2433 41.0795 66.2433H43.3252C43.8536 66.2433 43.8903 66.17 43.7289 65.6565L42.7455 62.5608C42.5987 62.106 42.4372 61.5925 42.3271 61.3651H42.2905C42.2391 61.4604 42.0556 61.9152 41.8501 62.4874L40.6979 65.7885Z" fill="white" fill-opacity="0.5"/>
<path d="M53.8274 64.6001C53.8274 65.1209 53.8788 65.1209 54.4292 65.1209H55.6695C56.418 65.1209 57.0051 65.0843 57.2253 65.0036C57.4235 64.9302 57.5702 64.8275 57.6803 64.3287L57.8418 63.5584C57.9298 63.4411 58.2454 63.4411 58.3188 63.5584C58.3188 64.0206 58.2454 64.7908 58.2454 65.5024C58.2454 66.1993 58.3188 66.9255 58.3188 67.373C58.2454 67.4904 57.9739 67.4904 57.8418 67.373L57.6583 66.6248C57.5702 66.28 57.4235 66.0086 57.0712 65.8912C56.8143 65.8105 56.3593 65.7958 55.6621 65.7958H54.4219C53.8715 65.7958 53.8201 65.8178 53.8201 66.3167V68.9942C53.8201 71.0189 53.8568 71.305 54.9356 71.4003L55.5594 71.459C55.6695 71.5397 55.6328 71.8845 55.5227 71.9432C54.4439 71.9065 53.8274 71.8845 53.0935 71.8845C52.2863 71.8845 51.6698 71.9065 50.8112 71.9432C50.7011 71.8845 50.6644 71.5764 50.7745 71.459L51.2295 71.4003C52.2863 71.2683 52.323 71.0115 52.323 68.9942V62.0619C52.323 60.0373 52.2863 59.7732 51.2295 59.6338L50.9359 59.5971C50.8258 59.5238 50.8625 59.1717 50.9726 59.113C51.7432 59.1497 52.3597 59.1717 53.0935 59.1717H56.4547C57.6216 59.1717 58.6857 59.1717 58.9206 59.113C58.9206 60.0006 58.9352 60.9249 58.9719 61.6585C58.9206 61.7758 58.6637 61.8345 58.5316 61.7172C58.3848 60.8515 58.1647 60.14 57.2547 59.8906C56.851 59.7732 56.2492 59.7732 55.486 59.7732H54.3705C53.8201 59.7732 53.8201 59.8099 53.8201 60.5434V64.6001H53.8274Z" fill="white" fill-opacity="0.5"/>
<path d="M62.832 62.0619C62.832 60.0373 62.7953 59.7292 61.6431 59.6338L61.1881 59.5971C61.078 59.5238 61.1147 59.1717 61.2248 59.113C62.2449 59.1497 62.8687 59.1717 63.6025 59.1717C64.3144 59.1717 64.9382 59.1497 65.8482 59.113C65.9583 59.1717 65.995 59.5164 65.8849 59.5971L65.4446 59.6338C64.3658 59.7292 64.3291 60.0373 64.3291 62.0619V68.7668C64.3291 69.9772 64.3805 70.4834 64.7107 70.8501C64.9089 71.0629 65.2611 71.2903 66.6995 71.2903C68.2554 71.2903 68.637 71.2096 68.9305 71.0409C69.2975 70.8061 69.7745 70.1166 70.1341 69.1336C70.2442 69.0382 70.5891 69.1116 70.5891 69.251C70.5891 69.4637 70.0754 71.4297 69.8185 71.9505C68.8865 71.9138 67.1545 71.8918 65.2685 71.8918H63.5952C62.8246 71.8918 62.2449 71.9138 61.2174 71.9505C61.1073 71.8918 61.0706 71.5837 61.1807 71.4663L61.7311 71.4077C62.7879 71.2903 62.8246 71.0189 62.8246 69.0015V62.0619H62.832Z" fill="white" fill-opacity="0.5"/>
<path d="M80.6138 67.4831C80.4891 67.0649 80.4157 67.0062 79.8653 67.0062H77.1059C76.6509 67.0062 76.5408 67.0649 76.4087 67.4611L75.7702 69.4564C75.4987 70.3073 75.3666 70.8208 75.3666 71.0336C75.3666 71.261 75.4546 71.3783 75.895 71.415L76.4967 71.4737C76.6215 71.5691 76.6215 71.8698 76.46 71.9505C75.983 71.9138 75.4179 71.9138 74.5593 71.8918C73.9575 71.8918 73.297 71.9285 72.8053 71.9505C72.6952 71.8772 72.6585 71.5691 72.7686 71.4737L73.3704 71.415C73.8107 71.3783 74.207 71.1656 74.4639 70.4834C74.7941 69.6104 75.3005 68.378 76.0711 66.2507L77.9351 61.1303C78.192 60.4481 78.3021 60.0886 78.2434 59.7805C78.6837 59.6485 78.9919 59.3037 79.1901 59.0616C79.3002 59.0616 79.4249 59.0983 79.4616 59.2304C79.6965 60.0666 79.99 60.9396 80.2689 61.7759L82.7714 69.405C83.2998 71.0336 83.542 71.3197 84.3273 71.415L84.819 71.4737C84.9437 71.5691 84.907 71.8698 84.819 71.9505C84.0704 71.9138 83.4319 71.8918 82.61 71.8918C81.7367 71.8918 81.0395 71.9285 80.5111 71.9505C80.3643 71.8772 80.3496 71.5691 80.4744 71.4737L81.0028 71.415C81.3844 71.3783 81.6413 71.261 81.6413 71.0702C81.6413 70.8648 81.5532 70.5201 81.4064 70.0652L80.6138 67.4831ZM77.0031 65.7885C76.8563 66.2287 76.8784 66.2433 77.3847 66.2433H79.6304C80.1588 66.2433 80.1955 66.17 80.0341 65.6565L79.0506 62.5608C78.9039 62.106 78.7424 61.5925 78.6323 61.3651H78.5956C78.5443 61.4604 78.3608 61.9152 78.1553 62.4874L77.0031 65.7885Z" fill="white" fill-opacity="0.5"/>
</g>
<defs>
<clipPath id="clip0_242_4543">
<rect width="62.791" height="28.8221" fill="white" transform="translate(22.1309 43.3632)"/>
</clipPath>
</defs>
</svg>
