<svg width="13" height="13" viewBox="0 0 13 13" fill="none" xmlns="http://www.w3.org/2000/svg">
<path d="M0.292893 10.8995C-0.0976311 11.29 -0.0976311 11.9232 0.292893 12.3137C0.683418 12.7043 1.31658 12.7043 1.70711 12.3137L0.292893 10.8995ZM12.6066 1.00003C12.6066 0.447742 12.1589 2.66209e-05 11.6066 2.70424e-05L2.6066 2.71688e-05C2.05432 2.68316e-05 1.6066 0.447742 1.6066 1.00003C1.6066 1.55231 2.05432 2.00003 2.6066 2.00003L10.6066 2.00003L10.6066 10C10.6066 10.5523 11.0543 11 11.6066 11C12.1589 11 12.6066 10.5523 12.6066 10L12.6066 1.00003ZM1.70711 12.3137L12.3137 1.70713L10.8995 0.29292L0.292893 10.8995L1.70711 12.3137Z" fill="#00BEC5"/>
</svg>
