<svg width="87" height="56" viewBox="0 0 87 56" fill="none" xmlns="http://www.w3.org/2000/svg">
<path d="M86.5579 49.0051C86.4019 50.0985 86.2015 51.1806 85.9677 52.2626C85.8897 52.6196 85.8117 52.9655 85.7339 53.3223C85.6113 53.7907 85.5001 54.2594 85.3663 54.7167L85.0322 55.9551L84.921 56.3565H84.9099C82.1582 65.228 76.6481 72.9863 69.1838 78.499C61.7195 84.0118 52.6917 86.9903 43.4181 87C19.4764 87 0 67.4894 0 43.5056C0 19.5106 19.4764 0 43.4182 0C49.3665 0.0120115 55.2493 1.24459 60.7038 3.62173C66.1583 5.99886 71.0689 9.47016 75.1327 13.8215L76.6693 15.4725L75.0101 16.9897L61.7029 29.1935L59.8545 30.8557L58.8856 29.7736L58.2285 29.1042C56.3137 27.1049 54.0139 25.5154 51.4682 24.4321C48.9226 23.3488 46.184 22.7941 43.4182 22.8016C39.9204 22.8005 36.4796 23.6889 33.4182 25.3836C30.3568 27.0783 27.7749 29.5238 25.9145 32.4909C24.0541 35.4581 22.9761 38.8498 22.7814 42.3482C22.5868 45.8467 23.2819 49.3374 24.8016 52.4933C26.3213 55.6492 28.6159 58.3669 31.4704 60.3919C34.3248 62.4169 37.6458 63.6829 41.122 64.0712C44.5982 64.4595 48.1159 63.9574 51.3455 62.612C54.5751 61.2666 57.4109 59.1219 59.5872 56.3788L47.516 56.39L42.4827 56.4011L45.8568 52.6643L59.1639 37.9279L59.8322 37.1918H60.8232L84.6649 37.2365H86.736L86.8809 39.3003C87.1135 42.5376 87.0052 45.7905 86.5579 49.0051Z" fill="white"/>
</svg>
