<svg width="28" height="29" viewBox="0 0 28 29" fill="none" xmlns="http://www.w3.org/2000/svg">
<mask id="mask0_247_419" style="mask-type:alpha" maskUnits="userSpaceOnUse" x="0" y="0" width="28" height="29">
<rect width="27.5435" height="28.4444" rx="2" fill="#2D2D2D"/>
</mask>
<g mask="url(#mask0_247_419)">
<rect x="-8.31641" y="-1.80188" width="44.1798" height="51.6119" rx="2" fill="#2D2D2D"/>
</g>
<g clip-path="url(#clip0_247_419)">
<path d="M20.0725 11.5028C20.1551 11.5817 20.212 11.6239 20.245 11.6331C20.2707 11.6386 20.3129 11.5982 20.3698 11.5083C20.4193 11.4295 20.4469 11.3726 20.4505 11.3377C20.3514 11.1763 20.2652 11.0736 20.1918 11.0295C20.1771 11.0387 20.1349 11.0827 20.0651 11.1653C19.9881 11.257 19.9514 11.3157 19.9532 11.3396C19.9514 11.3708 19.9917 11.4258 20.0725 11.5028Z" fill="white" fill-opacity="0.5"/>
<path d="M20.7695 11.5615C20.819 11.5688 20.8778 11.5248 20.9438 11.4257C20.997 11.3487 21.0282 11.2955 21.0338 11.2698C21.0338 11.2221 20.997 11.1579 20.9255 11.0753C20.8539 10.9928 20.8099 10.9506 20.7897 10.9451C20.7511 10.9561 20.663 11.0533 20.5254 11.2367C20.5401 11.2881 20.5749 11.3505 20.6263 11.4257C20.6777 11.5027 20.7254 11.5468 20.7695 11.5615Z" fill="white" fill-opacity="0.5"/>
<path d="M5.91444 11.2405C5.99703 11.3194 6.05392 11.3616 6.08696 11.3708C6.11265 11.3763 6.15486 11.3359 6.21175 11.246C6.2613 11.1671 6.28883 11.1103 6.2925 11.0754C6.1934 10.914 6.10714 10.8112 6.03373 10.7654C6.01905 10.7746 5.97684 10.8186 5.9071 10.9011C5.83002 10.9929 5.79332 11.0516 5.79515 11.0754C5.79148 11.1066 5.83186 11.1616 5.91444 11.2405Z" fill="white" fill-opacity="0.5"/>
<path d="M6.61139 11.2973C6.66094 11.3046 6.71967 11.2606 6.78574 11.1615C6.83896 11.0845 6.87016 11.0313 6.87567 11.0056C6.87567 10.9579 6.83896 10.8937 6.76739 10.8112C6.69581 10.7286 6.65177 10.6864 6.63158 10.6809C6.59488 10.6937 6.50678 10.791 6.36914 10.9744C6.38382 11.0258 6.41869 11.0882 6.47008 11.1634C6.51963 11.2386 6.56735 11.2844 6.61139 11.2973Z" fill="white" fill-opacity="0.5"/>
<path d="M13.5332 11.2973C13.5827 11.3046 13.6414 11.2606 13.7075 11.1615C13.7607 11.0845 13.7919 11.0313 13.7974 11.0056C13.7974 10.9579 13.7607 10.8937 13.6891 10.8112C13.6176 10.7286 13.5735 10.6864 13.5533 10.6809C13.5148 10.6919 13.4267 10.7891 13.2891 10.9726C13.3037 11.024 13.3386 11.0863 13.39 11.1615C13.4414 11.2386 13.4891 11.2844 13.5332 11.2973Z" fill="white" fill-opacity="0.5"/>
<path d="M20.7876 11.7522C20.5655 11.7265 20.3122 11.7008 20.0535 11.9448C19.6552 12.3208 19.6075 12.8822 19.7965 13.084C20.0149 13.317 20.382 13.2124 20.4847 13.1904C20.6114 13.1629 20.7178 13.1097 20.7197 13.106C20.7472 13.0565 20.7123 13.0088 20.6793 13.0014C20.6738 12.9996 20.5527 13.0565 20.4609 13.051C20.2553 13.04 20.1342 12.9427 20.0737 12.818C19.9599 12.5813 20.0755 12.0934 20.1874 12.0402C20.248 12.0126 20.6683 11.976 20.8022 12.1796C20.9013 12.3318 20.8885 12.552 20.8885 12.7648C20.8885 13.2381 20.8224 13.4729 20.6481 13.5848C20.5306 13.66 20.2407 13.6985 19.9801 13.7187C19.9801 13.7187 18.5632 13.7627 17.6181 13.7646C16.8656 13.7664 16.1242 13.6912 15.7204 13.6472C15.5938 13.6325 15.5204 13.6031 15.4947 13.5775C15.4048 13.4876 15.414 13.3481 15.414 13.2858V11.4458C15.414 11.2238 15.4286 10.9725 15.4341 10.8221C15.4268 10.8019 15.4066 10.7927 15.3864 10.7927C15.2047 10.8881 15.1222 10.9432 15.0047 11.0037C14.9295 11.0422 14.856 11.1688 14.9276 11.299C14.9808 11.3963 15.0451 11.3596 15.0469 11.4164C15.0469 11.4164 15.0781 12.1759 15.0744 12.4676C15.0708 12.7611 15.0451 13.6765 15.0451 13.6765C15.0359 13.8746 15.0047 14.0086 15.1093 14.0141C15.1846 14.0177 15.2139 13.9242 15.2837 13.9315C15.4397 13.948 16.6271 14.0746 17.5796 14.0746C18.2513 14.0746 19.7066 14.0599 20.2884 13.937C20.4884 13.8948 20.6683 13.7921 20.8188 13.6747C21.0739 13.4766 21.239 13.2601 21.239 12.9097C21.239 12.6162 21.239 12.4566 21.239 12.3135C21.2354 12.1099 21.1069 11.7888 20.7876 11.7522Z" fill="white" fill-opacity="0.5"/>
<path d="M13.9286 11.7523C13.7066 11.7266 13.4533 11.7009 13.1945 11.9449C12.7963 12.321 12.7486 12.8823 12.9376 13.0841C13.156 13.3171 13.523 13.2125 13.6258 13.1905C13.7524 13.163 13.8589 13.1098 13.8607 13.1061C13.8883 13.0566 13.8534 13.0089 13.8204 13.0016C13.8148 12.9997 13.6937 13.0566 13.602 13.0511C13.3964 13.0401 13.2753 12.9428 13.2147 12.8181C13.1009 12.5815 13.2166 12.0935 13.3285 12.0403C13.3891 12.0128 13.8093 11.9761 13.9433 12.1797C14.0424 12.332 14.0296 12.5521 14.0296 12.7649C14.0296 13.2382 13.9635 13.473 13.7892 13.5849C13.6717 13.6601 13.3817 13.6987 13.1211 13.7188C13.1211 13.7188 10.9133 13.7629 9.96817 13.7647C9.43228 13.7647 9.168 13.7188 8.92759 13.6821C8.77159 13.6583 8.70369 13.6308 8.63578 13.5776C8.53668 13.4987 8.55503 13.2602 8.55503 13.1978V11.4459C8.55503 11.2239 8.56971 10.9726 8.57522 10.8222C8.56604 10.802 8.54586 10.7928 8.52567 10.7928C8.34398 10.8882 8.26139 10.9433 8.14394 11.0038C8.06869 11.0423 7.99528 11.1689 8.06686 11.2992C8.12008 11.3964 8.18431 11.3597 8.18615 11.4166C8.18615 11.4166 8.21735 12.176 8.21368 12.4677C8.21184 12.6622 8.19899 12.9942 8.19165 13.196C8.16045 13.4198 8.09255 13.5501 7.97326 13.6271C7.8558 13.7023 7.64292 13.7262 7.51445 13.717C7.35662 13.706 7.2098 13.673 7.14189 13.6198C7.04279 13.5409 7.06114 13.3024 7.06114 13.24V11.9229C7.06665 11.7578 7.07399 11.5945 7.07766 11.4844C7.06848 11.4643 7.0483 11.4551 7.02811 11.4551C6.84642 11.5505 6.7675 11.6165 6.64638 11.6661C6.61701 11.6771 6.67758 11.7596 6.69776 11.9339C6.70143 11.9779 6.7051 12.0348 6.70694 12.0972C6.69409 12.1944 6.60417 12.2623 6.60417 12.2623C6.51791 12.3136 6.30686 12.4475 6.07194 12.6218C5.92512 12.73 5.73793 12.8805 5.60763 13.0401C5.49017 13.1813 5.51219 13.5794 5.64617 13.7519C5.75261 13.8913 5.92145 14.0252 6.13067 13.9885C6.32521 13.9536 6.55828 13.7207 6.64271 13.6491C6.65555 13.6381 6.68308 13.6069 6.69593 13.6088C6.69776 13.6088 6.69776 13.6088 6.69776 13.6088C6.71795 13.7463 6.77851 13.8784 6.92717 13.9757C7.09601 14.0876 7.49977 14.0931 7.73284 14.038C7.93105 13.9903 8.0797 13.8491 8.1733 13.7298C8.20083 13.695 8.22652 13.662 8.25222 13.6308C8.31462 13.7445 8.41372 13.8509 8.53851 13.9335C8.70919 14.0454 8.97347 14.0766 9.92596 14.0766C10.5977 14.0766 12.844 14.0619 13.4258 13.939C13.6258 13.8968 13.8057 13.794 13.9562 13.6766C14.2113 13.4785 14.3764 13.262 14.3764 12.9117C14.3764 12.6181 14.3764 12.4567 14.3764 12.3155C14.3764 12.11 14.248 11.789 13.9286 11.7523ZM6.50873 13.5611C6.36375 13.6601 6.07011 13.684 5.93247 13.5574C5.80216 13.4363 5.81868 13.174 5.92696 13.0089C6.06093 12.8034 6.41147 12.5429 6.57847 12.4457C6.60967 12.4274 6.64087 12.4292 6.65555 12.4384C6.66473 12.4439 6.69593 12.4714 6.69593 12.5264C6.69593 12.6622 6.69593 13.0713 6.69593 13.2822C6.69409 13.3171 6.69409 13.3446 6.69226 13.3666C6.67758 13.4345 6.61151 13.4895 6.50873 13.5611Z" fill="white" fill-opacity="0.5"/>
<path d="M8.28435 17.3309C8.28435 17.5198 8.31188 17.6354 8.39447 17.6684C8.40732 17.6831 8.40732 17.7106 8.3908 17.7253C8.33574 17.7253 8.25316 17.7436 8.1669 17.7675C7.92465 17.8335 7.59614 17.8904 7.34838 17.8904C6.80515 17.8904 6.30596 17.7345 5.95543 17.3639C5.68198 17.0796 5.53516 16.7035 5.53516 16.2871C5.53516 15.8835 5.66362 15.4762 5.94625 15.1625C6.25274 14.8305 6.70421 14.6067 7.39426 14.6067C7.65487 14.6067 7.89712 14.6581 7.9742 14.6782C8.06045 14.6966 8.20177 14.7296 8.25683 14.7204C8.25683 14.8764 8.28435 15.124 8.32473 15.4084C8.31188 15.4469 8.2293 15.4505 8.20177 15.423C8.0733 14.9112 7.73195 14.7498 7.26579 14.7498C6.37937 14.7498 5.99213 15.4047 5.99213 16.1165C5.99213 17.0282 6.4436 17.7436 7.36306 17.7436C7.64569 17.7436 7.81453 17.6813 7.86592 17.6005C7.88794 17.5675 7.9118 17.4813 7.9118 17.3309V17.1401C7.9118 16.742 7.89895 16.7127 7.61449 16.6796L7.41261 16.6558C7.37591 16.6375 7.38141 16.5512 7.41261 16.5366C7.54475 16.5457 7.79618 16.5512 8.06596 16.5512C8.24398 16.5512 8.39998 16.5457 8.55047 16.5366C8.58166 16.5549 8.58717 16.6264 8.55414 16.6558L8.48073 16.665C8.28803 16.6888 8.28435 16.8209 8.28435 17.063V17.3309Z" fill="white" fill-opacity="0.5"/>
<path d="M11.084 16.7145C11.0528 16.6099 11.0344 16.5953 10.8968 16.5953H10.2067C10.0929 16.5953 10.0654 16.6099 10.0324 16.709L9.87271 17.208C9.8048 17.4208 9.77177 17.5492 9.77177 17.6024C9.77177 17.6592 9.79379 17.6886 9.90391 17.6978L10.0544 17.7124C10.0856 17.7363 10.0856 17.8115 10.0452 17.8317C9.92593 17.8225 9.78461 17.8225 9.56989 17.817C9.4194 17.817 9.25423 17.8262 9.13127 17.8317C9.10374 17.8133 9.09456 17.7363 9.12209 17.7124L9.27258 17.6978C9.3827 17.6886 9.4818 17.6354 9.54603 17.4648C9.62862 17.2465 9.75709 16.9383 9.94795 16.4063L10.4141 15.1258C10.4783 14.9552 10.5059 14.8653 10.4912 14.7883C10.6013 14.7553 10.6784 14.6691 10.7279 14.6085C10.7555 14.6085 10.7867 14.6177 10.7958 14.6507C10.8546 14.8598 10.928 15.0781 10.9977 15.2873L11.6235 17.1951C11.7557 17.6024 11.8162 17.6739 12.0126 17.6978L12.1356 17.7124C12.1668 17.7363 12.1576 17.8115 12.1356 17.8317C11.9484 17.8225 11.7887 17.817 11.5832 17.817C11.3648 17.817 11.1904 17.8262 11.0583 17.8317C11.0216 17.8133 11.0179 17.7363 11.0491 17.7124L11.1812 17.6978C11.2767 17.6886 11.3409 17.6592 11.3409 17.6116C11.3409 17.5602 11.3189 17.474 11.2822 17.3602L11.084 16.7145ZM10.1792 16.2907C10.1425 16.4008 10.148 16.4045 10.2746 16.4045H10.8362C10.9683 16.4045 10.9775 16.3861 10.9371 16.2577L10.6912 15.4836C10.6545 15.3698 10.6141 15.2414 10.5866 15.1845H10.5774C10.5646 15.2084 10.5187 15.3221 10.4673 15.4652L10.1792 16.2907Z" fill="white" fill-opacity="0.5"/>
<path d="M13.4617 15.9935C13.4617 16.1238 13.4746 16.1238 13.6122 16.1238H13.9224C14.1096 16.1238 14.2564 16.1146 14.3114 16.0944C14.361 16.0761 14.3977 16.0504 14.4252 15.9256L14.4656 15.733C14.4876 15.7037 14.5665 15.7037 14.5849 15.733C14.5849 15.8486 14.5665 16.0412 14.5665 16.2192C14.5665 16.3934 14.5849 16.5751 14.5849 16.687C14.5665 16.7163 14.4986 16.7163 14.4656 16.687L14.4197 16.4998C14.3977 16.4136 14.361 16.3457 14.2729 16.3164C14.2087 16.2962 14.0949 16.2925 13.9205 16.2925H13.6104C13.4727 16.2925 13.4599 16.298 13.4599 16.4228V17.0924C13.4599 17.5987 13.4691 17.6702 13.7388 17.6941L13.8948 17.7088C13.9224 17.7289 13.9132 17.8152 13.8857 17.8298C13.6159 17.8207 13.4617 17.8152 13.2782 17.8152C13.0763 17.8152 12.9222 17.8207 12.7074 17.8298C12.6799 17.8152 12.6707 17.7381 12.6983 17.7088L12.812 17.6941C13.0763 17.6611 13.0855 17.5969 13.0855 17.0924V15.3588C13.0855 14.8525 13.0763 14.7864 12.812 14.7516L12.7386 14.7424C12.7111 14.7241 12.7203 14.636 12.7478 14.6213C12.9405 14.6305 13.0947 14.636 13.2782 14.636H14.1187C14.4105 14.636 14.6767 14.636 14.7354 14.6213C14.7354 14.8433 14.7391 15.0745 14.7482 15.2579C14.7354 15.2873 14.6712 15.3019 14.6381 15.2726C14.6014 15.0561 14.5464 14.8782 14.3188 14.8158C14.2178 14.7864 14.0674 14.7864 13.8765 14.7864H13.5975C13.4599 14.7864 13.4599 14.7956 13.4599 14.9791V15.9935H13.4617Z" fill="white" fill-opacity="0.5"/>
<path d="M15.7147 15.3588C15.7147 14.8525 15.7055 14.7754 15.4174 14.7516L15.3036 14.7424C15.2761 14.7241 15.2853 14.636 15.3128 14.6213C15.5679 14.6305 15.7239 14.636 15.9074 14.636C16.0854 14.636 16.2414 14.6305 16.469 14.6213C16.4965 14.636 16.5057 14.7222 16.4782 14.7424L16.3681 14.7516C16.0983 14.7754 16.0891 14.8525 16.0891 15.3588V17.0355C16.0891 17.3382 16.1019 17.4648 16.1845 17.5565C16.2341 17.6097 16.3222 17.6666 16.6819 17.6666C17.071 17.6666 17.1664 17.6464 17.2398 17.6042C17.3316 17.5455 17.4509 17.373 17.5408 17.1272C17.5683 17.1034 17.6546 17.1217 17.6546 17.1566C17.6546 17.2098 17.5261 17.7014 17.4619 17.8317C17.2288 17.8225 16.7957 17.817 16.324 17.817H15.9056C15.7129 17.817 15.5679 17.8225 15.311 17.8317C15.2834 17.817 15.2742 17.7399 15.3018 17.7106L15.4394 17.6959C15.7037 17.6666 15.7129 17.5987 15.7129 17.0942V15.3588H15.7147Z" fill="white" fill-opacity="0.5"/>
<path d="M20.1601 16.7145C20.1289 16.6099 20.1106 16.5953 19.9729 16.5953H19.2829C19.1691 16.5953 19.1416 16.6099 19.1085 16.709L18.9489 17.208C18.881 17.4208 18.8479 17.5492 18.8479 17.6024C18.8479 17.6592 18.87 17.6886 18.9801 17.6978L19.1306 17.7124C19.1618 17.7363 19.1618 17.8115 19.1214 17.8317C19.0021 17.8225 18.8608 17.8225 18.6461 17.817C18.4956 17.817 18.3304 17.8262 18.2074 17.8317C18.1799 17.8133 18.1707 17.7363 18.1983 17.7124L18.3488 17.6978C18.4589 17.6886 18.558 17.6354 18.6222 17.4648C18.7048 17.2465 18.8314 16.9383 19.0241 16.4063L19.4903 15.1258C19.5545 14.9552 19.582 14.8653 19.5674 14.7883C19.6775 14.7553 19.7546 14.6691 19.8041 14.6085C19.8316 14.6085 19.8628 14.6177 19.872 14.6507C19.9307 14.8598 20.0041 15.0781 20.0739 15.2873L20.6997 17.1951C20.8318 17.6024 20.8924 17.6739 21.0888 17.6978L21.2117 17.7124C21.2429 17.7363 21.2338 17.8115 21.2117 17.8317C21.0245 17.8225 20.8649 17.817 20.6593 17.817C20.4409 17.817 20.2666 17.8262 20.1344 17.8317C20.0977 17.8133 20.0941 17.7363 20.1253 17.7124L20.2574 17.6978C20.3528 17.6886 20.4171 17.6592 20.4171 17.6116C20.4171 17.5602 20.3951 17.474 20.3583 17.3602L20.1601 16.7145ZM19.2572 16.2907C19.2205 16.4008 19.226 16.4045 19.3526 16.4045H19.9142C20.0464 16.4045 20.0555 16.3861 20.0152 16.2577L19.7692 15.4836C19.7325 15.3698 19.6922 15.2414 19.6646 15.1845H19.6554C19.6426 15.2084 19.5967 15.3221 19.5453 15.4652L19.2572 16.2907Z" fill="white" fill-opacity="0.5"/>
</g>
<defs>
<clipPath id="clip0_247_419">
<rect x="5.53516" y="10.6827" width="15.7024" height="7.20764" rx="2" fill="white"/>
</clipPath>
</defs>
</svg>
